<svg width="116" height="37" viewBox="0 0 116 37" fill="none" xmlns="http://www.w3.org/2000/svg">
<path d="M5.35307 20.8605L2.34631 22.9421L0 34.5547H5.35307V20.8605Z" fill="#1F2041"/>
<path d="M5.35309 20.8605L8.35964 22.9421L10.7059 34.5547H5.35309V20.8605Z" fill="url(#paint0_linear_2_121)"/>
<path d="M14.8167 12.2915L10.6039 15.208L7.31647 34.5547H14.8167V12.2915Z" fill="#1F2041"/>
<path d="M14.8167 12.2915L19.0296 15.208L22.3171 34.5547H14.8167V12.2915Z" fill="url(#paint1_linear_2_121)"/>
<path d="M27.4772 1.03687L21.6802 5.05001L17.1567 34.5548H27.4772V1.03687Z" fill="#1F2041"/>
<path d="M27.4772 1.03687L33.2741 5.05001L37.7978 34.5548H27.4772V1.03687Z" fill="url(#paint2_linear_2_121)"/>
<path d="M49 15.2834V4.1275H53.6882C54.7414 4.1275 55.6401 4.28155 56.3843 4.58967C57.1284 4.89778 57.7009 5.34401 58.1016 5.92837C58.5023 6.51272 58.7026 7.20864 58.7026 8.01611C58.7026 8.82358 58.5023 9.51949 58.1016 10.1038C57.7009 10.6776 57.1284 11.1185 56.3843 11.4266C55.6401 11.7347 54.7414 11.8888 53.6882 11.8888H49.9445L50.7173 11.1557V15.2834H49ZM57.0369 15.2834L53.9801 11.2354H55.8176L58.9087 15.2834H57.0369ZM50.7173 11.3151L49.9445 10.5341H53.6367C54.7357 10.5341 55.5657 10.3163 56.1267 9.88073C56.6991 9.4345 56.9853 8.81295 56.9853 8.01611C56.9853 7.21926 56.6991 6.60303 56.1267 6.16742C55.5657 5.73181 54.7357 5.51401 53.6367 5.51401H49.9445L50.7173 4.71716V11.3151ZM63.0398 8.94045H69.222V10.2951H63.0398V8.94045ZM63.1944 13.8968H70.2009V15.2834H61.4771V4.1275H69.9605V5.51401H63.1944V13.8968ZM71.1611 15.2834L76.6049 4.1275H78.305L83.7659 15.2834H81.9628L77.1029 5.01996H77.7898L72.9299 15.2834H71.1611ZM73.4794 12.4944L73.9431 11.2194H80.7092L81.2072 12.4944H73.4794ZM90.7667 15.4108C89.8508 15.4108 89.0036 15.2727 88.2251 14.9965C87.4581 14.7096 86.7884 14.3112 86.2159 13.8012C85.6549 13.2806 85.2142 12.675 84.8936 11.9844C84.5731 11.2938 84.4128 10.5341 84.4128 9.70542C84.4128 8.8767 84.5731 8.11704 84.8936 7.42644C85.2142 6.73584 85.6607 6.13555 86.2331 5.62557C86.8055 5.10496 87.4753 4.70654 88.2423 4.4303C89.0208 4.14343 89.868 4 90.7839 4C91.7112 4 92.5641 4.14874 93.3426 4.44623C94.1326 4.7331 94.8023 5.1634 95.3518 5.73713L94.2356 6.74115C93.7777 6.29492 93.2625 5.96556 92.6901 5.75306C92.1176 5.52995 91.5051 5.41839 90.8526 5.41839C90.1771 5.41839 89.5474 5.52463 88.9636 5.73713C88.3911 5.94962 87.8931 6.24711 87.4695 6.6296C87.0459 7.01208 86.7139 7.46894 86.4735 8.00017C86.2445 8.52078 86.1301 9.0892 86.1301 9.70542C86.1301 10.3217 86.2445 10.8954 86.4735 11.4266C86.7139 11.9472 87.0459 12.3988 87.4695 12.7813C87.8931 13.1637 88.3911 13.4612 88.9636 13.6737C89.5474 13.8862 90.1771 13.9925 90.8526 13.9925C91.5051 13.9925 92.1176 13.8862 92.6901 13.6737C93.2625 13.4506 93.7777 13.1106 94.2356 12.6538L95.3518 13.6578C94.8023 14.2315 94.1326 14.6671 93.3426 14.9646C92.5641 15.2621 91.7055 15.4108 90.7667 15.4108ZM100.054 15.2834V5.51401H95.9328V4.1275H105.876V5.51401H101.754V15.2834H100.054ZM57.6207 23.7166H59.338V34.8725H57.6207V23.7166ZM50.7173 34.8725H49V23.7166H50.7173V34.8725ZM57.7753 29.9002H50.5456V28.5137H57.7753V29.9002ZM68.3627 35C67.4468 35 66.5939 34.8566 65.8039 34.5697C65.0254 34.2828 64.35 33.8844 63.7775 33.3744C63.2051 32.8538 62.7586 32.2482 62.4381 31.5576C62.1175 30.867 61.9572 30.1127 61.9572 29.2946C61.9572 28.4765 62.1175 27.7221 62.4381 27.0315C62.7586 26.3409 63.2051 25.7406 63.7775 25.2307C64.35 24.71 65.0254 24.3063 65.8039 24.0194C66.5824 23.7326 67.4353 23.5892 68.3627 23.5892C69.2785 23.5892 70.12 23.7326 70.8871 24.0194C71.6656 24.2957 72.341 24.6941 72.9135 25.2147C73.4973 25.7247 73.9438 26.325 74.2529 27.0156C74.5735 27.7062 74.7338 28.4659 74.7338 29.2946C74.7338 30.1233 74.5735 30.883 74.2529 31.5736C73.9438 32.2642 73.4973 32.8698 72.9135 33.3904C72.341 33.9004 71.6656 34.2988 70.8871 34.5856C70.12 34.8619 69.2785 35 68.3627 35ZM68.3627 33.5816C69.0267 33.5816 69.6392 33.4754 70.2002 33.2629C70.7726 33.0504 71.2649 32.7529 71.677 32.3704C72.1006 31.9773 72.4269 31.5204 72.6559 30.9998C72.8963 30.4792 73.0165 29.9108 73.0165 29.2946C73.0165 28.6783 72.8963 28.1099 72.6559 27.5893C72.4269 27.0687 72.1006 26.6172 71.677 26.2347C71.2649 25.8416 70.7726 25.5388 70.2002 25.3263C69.6392 25.1138 69.0267 25.0075 68.3627 25.0075C67.6872 25.0075 67.0633 25.1138 66.4908 25.3263C65.9299 25.5388 65.4376 25.8416 65.014 26.2347C64.5904 26.6172 64.2584 27.0687 64.018 27.5893C63.789 28.1099 63.6745 28.6783 63.6745 29.2946C63.6745 29.9108 63.789 30.4792 64.018 30.9998C64.2584 31.5204 64.5904 31.9773 65.014 32.3704C65.4376 32.7529 65.9299 33.0504 66.4908 33.2629C67.0633 33.4754 67.6872 33.5816 68.3627 33.5816ZM79.5779 34.8725V25.1032H75.4565V23.7166H85.3995V25.1032H81.278V34.8725H79.5779ZM88.8326 28.5296H95.0148V29.8842H88.8326V28.5296ZM88.9872 33.486H95.9937V34.8725H87.2699V23.7166H95.7533V25.1032H88.9872V33.486ZM98.7742 34.8725V23.7166H100.492V33.486H107V34.8725H98.7742Z" fill="#1F2041"/>
<defs>
<linearGradient id="paint0_linear_2_121" x1="8.02953" y1="34.5547" x2="8.02953" y2="20.8605" gradientUnits="userSpaceOnUse">
<stop stop-color="#8DA3F9"/>
<stop offset="1" stop-color="#6ECF9F"/>
</linearGradient>
<linearGradient id="paint1_linear_2_121" x1="18.5668" y1="34.5547" x2="18.5668" y2="12.2915" gradientUnits="userSpaceOnUse">
<stop stop-color="#7A94FB"/>
<stop offset="1" stop-color="#BA9CFF"/>
</linearGradient>
<linearGradient id="paint2_linear_2_121" x1="32.6374" y1="34.5548" x2="32.6374" y2="1.03687" gradientUnits="userSpaceOnUse">
<stop stop-color="#718DFD"/>
<stop offset="1" stop-color="#B696FF"/>
</linearGradient>
</defs>
</svg>
