<?xml version="1.0" encoding="UTF-8" standalone="no"?>
<!DOCTYPE svg PUBLIC "-//W3C//DTD SVG 1.1//EN"
 "http://www.w3.org/Graphics/SVG/1.1/DTD/svg11.dtd">
<!-- Generated by graphviz version 2.40.1 (20161225.0304)
 -->
<!-- Title: %0 Pages: 1 -->
<svg width="872pt" height="1174pt"
 viewBox="0.00 0.00 871.62 1173.90" xmlns="http://www.w3.org/2000/svg" xmlns:xlink="http://www.w3.org/1999/xlink">
<g id="graph0" class="graph" transform="scale(1 1) rotate(0) translate(144 1029.903)">
<title>%0</title>
<polygon fill="#ffffff" stroke="transparent" points="-144,144 -144,-1029.903 727.6242,-1029.903 727.6242,144 -144,144"/>
<!-- bookings -->
<g id="node1" class="node">
<title>bookings</title>
<polygon fill="#4477c9" stroke="transparent" points="284.9916,-273.903 284.9916,-511.903 366.9916,-511.903 366.9916,-273.903 284.9916,-273.903"/>
<polygon fill="#add8e6" stroke="transparent" points="284.9916,-493.903 284.9916,-511.903 366.9916,-511.903 366.9916,-493.903 284.9916,-493.903"/>
<polygon fill="none" stroke="#000000" points="284.9916,-493.903 284.9916,-511.903 366.9916,-511.903 366.9916,-493.903 284.9916,-493.903"/>
<text text-anchor="start" x="307.241" y="-500.803" font-family="Times,serif" font-weight="bold" font-style="italic" font-size="9.00" fill="#000000"> bookings </text>
<polygon fill="none" stroke="#000000" points="284.9916,-473.903 284.9916,-493.903 366.9916,-493.903 366.9916,-473.903 284.9916,-473.903"/>
<text text-anchor="start" x="289.9916" y="-480.803" font-family="Times,serif" font-size="9.00" fill="#000000">adults: Number</text>
<polygon fill="none" stroke="#000000" points="284.9916,-453.903 284.9916,-473.903 366.9916,-473.903 366.9916,-453.903 284.9916,-453.903"/>
<text text-anchor="start" x="289.9916" y="-460.803" font-family="Times,serif" font-size="9.00" fill="#000000">babies: Number</text>
<polygon fill="none" stroke="#000000" points="284.9916,-433.903 284.9916,-453.903 366.9916,-453.903 366.9916,-433.903 284.9916,-433.903"/>
<text text-anchor="start" x="289.9916" y="-440.803" font-family="Times,serif" font-size="9.00" fill="#000000">children: Number</text>
<polygon fill="none" stroke="#000000" points="284.9916,-413.903 284.9916,-433.903 366.9916,-433.903 366.9916,-413.903 284.9916,-413.903"/>
<text text-anchor="start" x="289.9916" y="-420.803" font-family="Times,serif" font-size="9.00" fill="#000000">arrivalDate: Date</text>
<polygon fill="none" stroke="#000000" points="284.9916,-393.903 284.9916,-413.903 366.9916,-413.903 366.9916,-393.903 284.9916,-393.903"/>
<text text-anchor="start" x="289.6383" y="-400.803" font-family="Times,serif" font-size="9.00" fill="#000000">departureDate: Date</text>
<polygon fill="none" stroke="#000000" points="284.9916,-373.903 284.9916,-393.903 366.9916,-393.903 366.9916,-373.903 284.9916,-373.903"/>
<text text-anchor="start" x="289.9916" y="-380.803" font-family="Times,serif" font-size="9.00" fill="#000000">roomId: ObjectID</text>
<polygon fill="none" stroke="#000000" points="284.9916,-353.903 284.9916,-373.903 366.9916,-373.903 366.9916,-353.903 284.9916,-353.903"/>
<text text-anchor="start" x="289.9916" y="-360.803" font-family="Times,serif" font-size="9.00" fill="#000000">userId: ObjectID</text>
<polygon fill="none" stroke="#000000" points="284.9916,-333.903 284.9916,-353.903 366.9916,-353.903 366.9916,-333.903 284.9916,-333.903"/>
<text text-anchor="start" x="289.9916" y="-340.803" font-family="Times,serif" font-size="9.00" fill="#000000">totalPrice: Number</text>
<polygon fill="none" stroke="#000000" points="284.9916,-313.903 284.9916,-333.903 366.9916,-333.903 366.9916,-313.903 284.9916,-313.903"/>
<text text-anchor="start" x="289.9916" y="-320.803" font-family="Times,serif" font-size="9.00" fill="#000000">expires_at: Number</text>
<polygon fill="none" stroke="#000000" points="284.9916,-293.903 284.9916,-313.903 366.9916,-313.903 366.9916,-293.903 284.9916,-293.903"/>
<text text-anchor="start" x="289.9916" y="-300.803" font-family="Times,serif" font-size="9.00" fill="#000000">_id: ObjectID</text>
<polygon fill="none" stroke="#000000" points="284.9916,-273.903 284.9916,-293.903 366.9916,-293.903 366.9916,-273.903 284.9916,-273.903"/>
<text text-anchor="start" x="289.9916" y="-280.803" font-family="Times,serif" font-size="9.00" fill="#000000">__v: Number</text>
</g>
<!-- likes -->
<g id="node2" class="node">
<title>likes</title>
<polygon fill="#4477c9" stroke="transparent" points="514.6242,-72.903 514.6242,-210.903 583.6242,-210.903 583.6242,-72.903 514.6242,-72.903"/>
<polygon fill="#add8e6" stroke="transparent" points="515.1242,-192.903 515.1242,-210.903 584.1242,-210.903 584.1242,-192.903 515.1242,-192.903"/>
<polygon fill="none" stroke="#000000" points="515.1242,-192.903 515.1242,-210.903 584.1242,-210.903 584.1242,-192.903 515.1242,-192.903"/>
<text text-anchor="start" x="538.8755" y="-199.803" font-family="Times,serif" font-weight="bold" font-style="italic" font-size="9.00" fill="#000000"> likes </text>
<polygon fill="none" stroke="#000000" points="515.1242,-172.903 515.1242,-192.903 584.1242,-192.903 584.1242,-172.903 515.1242,-172.903"/>
<text text-anchor="start" x="520.1242" y="-179.803" font-family="Times,serif" font-size="9.00" fill="#000000">reviewId: String</text>
<polygon fill="none" stroke="#000000" points="515.1242,-152.903 515.1242,-172.903 584.1242,-172.903 584.1242,-152.903 515.1242,-152.903"/>
<text text-anchor="start" x="520.1242" y="-159.803" font-family="Times,serif" font-size="9.00" fill="#000000">userId: String</text>
<polygon fill="none" stroke="#000000" points="515.1242,-132.903 515.1242,-152.903 584.1242,-152.903 584.1242,-132.903 515.1242,-132.903"/>
<text text-anchor="start" x="520.1242" y="-139.803" font-family="Times,serif" font-size="9.00" fill="#000000">_id: ObjectID</text>
<polygon fill="none" stroke="#000000" points="515.1242,-112.903 515.1242,-132.903 584.1242,-132.903 584.1242,-112.903 515.1242,-112.903"/>
<text text-anchor="start" x="520.0097" y="-119.803" font-family="Times,serif" font-size="9.00" fill="#000000">updatedAt: Date</text>
<polygon fill="none" stroke="#000000" points="515.1242,-92.903 515.1242,-112.903 584.1242,-112.903 584.1242,-92.903 515.1242,-92.903"/>
<text text-anchor="start" x="520.1242" y="-99.803" font-family="Times,serif" font-size="9.00" fill="#000000">created_at: Date</text>
<polygon fill="none" stroke="#000000" points="515.1242,-72.903 515.1242,-92.903 584.1242,-92.903 584.1242,-72.903 515.1242,-72.903"/>
<text text-anchor="start" x="520.1242" y="-79.803" font-family="Times,serif" font-size="9.00" fill="#000000">__v: Number</text>
</g>
<!-- reviews -->
<g id="node3" class="node">
<title>reviews</title>
<polygon fill="#4477c9" stroke="transparent" points="288.9916,-583.903 288.9916,-761.903 362.9916,-761.903 362.9916,-583.903 288.9916,-583.903"/>
<polygon fill="#add8e6" stroke="transparent" points="288.9916,-743.903 288.9916,-761.903 362.9916,-761.903 362.9916,-743.903 288.9916,-743.903"/>
<polygon fill="none" stroke="#000000" points="288.9916,-743.903 288.9916,-761.903 362.9916,-761.903 362.9916,-743.903 288.9916,-743.903"/>
<text text-anchor="start" x="309.7493" y="-750.803" font-family="Times,serif" font-weight="bold" font-style="italic" font-size="9.00" fill="#000000"> reviews </text>
<polygon fill="none" stroke="#000000" points="288.9916,-723.903 288.9916,-743.903 362.9916,-743.903 362.9916,-723.903 288.9916,-723.903"/>
<text text-anchor="start" x="293.9916" y="-730.803" font-family="Times,serif" font-size="9.00" fill="#000000">content: String</text>
<polygon fill="none" stroke="#000000" points="288.9916,-703.903 288.9916,-723.903 362.9916,-723.903 362.9916,-703.903 288.9916,-703.903"/>
<text text-anchor="start" x="293.9916" y="-710.803" font-family="Times,serif" font-size="9.00" fill="#000000">rating: Number</text>
<polygon fill="none" stroke="#000000" points="288.9916,-683.903 288.9916,-703.903 362.9916,-703.903 362.9916,-683.903 288.9916,-683.903"/>
<text text-anchor="start" x="293.628" y="-690.803" font-family="Times,serif" font-size="9.00" fill="#000000">roomId: ObjectID</text>
<polygon fill="none" stroke="#000000" points="288.9916,-663.903 288.9916,-683.903 362.9916,-683.903 362.9916,-663.903 288.9916,-663.903"/>
<text text-anchor="start" x="293.9916" y="-670.803" font-family="Times,serif" font-size="9.00" fill="#000000">userId: ObjectID</text>
<polygon fill="none" stroke="#000000" points="288.9916,-643.903 288.9916,-663.903 362.9916,-663.903 362.9916,-643.903 288.9916,-643.903"/>
<text text-anchor="start" x="293.9916" y="-650.803" font-family="Times,serif" font-size="9.00" fill="#000000">_id: ObjectID</text>
<polygon fill="none" stroke="#000000" points="288.9916,-623.903 288.9916,-643.903 362.9916,-643.903 362.9916,-623.903 288.9916,-623.903"/>
<text text-anchor="start" x="293.9916" y="-630.803" font-family="Times,serif" font-size="9.00" fill="#000000">updated_at: Date</text>
<polygon fill="none" stroke="#000000" points="288.9916,-603.903 288.9916,-623.903 362.9916,-623.903 362.9916,-603.903 288.9916,-603.903"/>
<text text-anchor="start" x="293.9916" y="-610.803" font-family="Times,serif" font-size="9.00" fill="#000000">created_at: Date</text>
<polygon fill="none" stroke="#000000" points="288.9916,-583.903 288.9916,-603.903 362.9916,-603.903 362.9916,-583.903 288.9916,-583.903"/>
<text text-anchor="start" x="293.9916" y="-590.803" font-family="Times,serif" font-size="9.00" fill="#000000">__v: Number</text>
</g>
<!-- reviews&#45;&gt;likes -->
<g id="edge3" class="edge">
<title>reviews:4&#45;&gt;likes:0</title>
<path fill="none" stroke="#000000" stroke-dasharray="5,2" d="M362.9916,-653.903C582.9738,-653.903 295.142,-182.903 515.1242,-182.903"/>
<text text-anchor="middle" x="441.3079" y="-649.103" font-family="Times,serif" font-size="14.00" fill="#000000">reviews&#45;likes</text>
<text text-anchor="middle" x="510.0709" y="-170.303" font-family="Times,serif" font-size="14.00" fill="#000000">N</text>
<text text-anchor="middle" x="366.4916" y="-641.303" font-family="Times,serif" font-size="14.00" fill="#000000">1</text>
</g>
<!-- rooms -->
<g id="node4" class="node">
<title>rooms</title>
<polygon fill="#4477c9" stroke="transparent" points="0,-507.903 0,-885.903 121,-885.903 121,-507.903 0,-507.903"/>
<polygon fill="#add8e6" stroke="transparent" points=".5,-867.903 .5,-885.903 121.5,-885.903 121.5,-867.903 .5,-867.903"/>
<polygon fill="none" stroke="#000000" points=".5,-867.903 .5,-885.903 121.5,-885.903 121.5,-867.903 .5,-867.903"/>
<text text-anchor="start" x="47.5014" y="-874.803" font-family="Times,serif" font-weight="bold" font-style="italic" font-size="9.00" fill="#000000"> rooms </text>
<polygon fill="none" stroke="#000000" points=".5,-847.903 .5,-867.903 121.5,-867.903 121.5,-847.903 .5,-847.903"/>
<text text-anchor="start" x="5.5" y="-854.803" font-family="Times,serif" font-size="9.00" fill="#000000">roomNumber: Number</text>
<polygon fill="none" stroke="#000000" points=".5,-827.903 .5,-847.903 121.5,-847.903 121.5,-827.903 .5,-827.903"/>
<text text-anchor="start" x="5.5" y="-834.803" font-family="Times,serif" font-size="9.00" fill="#000000">price: Number</text>
<polygon fill="none" stroke="#000000" points=".5,-807.903 .5,-827.903 121.5,-827.903 121.5,-807.903 .5,-807.903"/>
<text text-anchor="start" x="5.5" y="-814.803" font-family="Times,serif" font-size="9.00" fill="#000000">countReviews: Number</text>
<polygon fill="none" stroke="#000000" points=".5,-787.903 .5,-807.903 121.5,-807.903 121.5,-787.903 .5,-787.903"/>
<text text-anchor="start" x="5.5" y="-794.803" font-family="Times,serif" font-size="9.00" fill="#000000">rate: Number</text>
<polygon fill="none" stroke="#000000" points=".5,-767.903 .5,-787.903 121.5,-787.903 121.5,-767.903 .5,-767.903"/>
<text text-anchor="start" x="5.5" y="-774.803" font-family="Times,serif" font-size="9.00" fill="#000000">images: Array</text>
<polygon fill="none" stroke="#000000" points=".5,-747.903 .5,-767.903 121.5,-767.903 121.5,-747.903 .5,-747.903"/>
<text text-anchor="start" x="5.5" y="-754.803" font-family="Times,serif" font-size="9.00" fill="#000000">comforts: Array</text>
<polygon fill="none" stroke="#000000" points=".5,-727.903 .5,-747.903 121.5,-747.903 121.5,-727.903 .5,-727.903"/>
<text text-anchor="start" x="5.5" y="-734.803" font-family="Times,serif" font-size="9.00" fill="#000000">bookings: Array</text>
<polygon fill="none" stroke="#000000" points=".5,-707.903 .5,-727.903 121.5,-727.903 121.5,-707.903 .5,-707.903"/>
<text text-anchor="start" x="5.5" y="-714.803" font-family="Times,serif" font-size="9.00" fill="#000000">type: String</text>
<polygon fill="none" stroke="#000000" points=".5,-687.903 .5,-707.903 121.5,-707.903 121.5,-687.903 .5,-687.903"/>
<text text-anchor="start" x="5.5" y="-694.803" font-family="Times,serif" font-size="9.00" fill="#000000">hasWifi: Boolean</text>
<polygon fill="none" stroke="#000000" points=".5,-667.903 .5,-687.903 121.5,-687.903 121.5,-667.903 .5,-667.903"/>
<text text-anchor="start" x="5.5" y="-674.803" font-family="Times,serif" font-size="9.00" fill="#000000">hasConditioner: Boolean</text>
<polygon fill="none" stroke="#000000" points=".5,-647.903 .5,-667.903 121.5,-667.903 121.5,-647.903 .5,-647.903"/>
<text text-anchor="start" x="5.5" y="-654.803" font-family="Times,serif" font-size="9.00" fill="#000000">hasWorkSpace: Boolean</text>
<polygon fill="none" stroke="#000000" points=".5,-627.903 .5,-647.903 121.5,-647.903 121.5,-627.903 .5,-627.903"/>
<text text-anchor="start" x="5.5" y="-634.803" font-family="Times,serif" font-size="9.00" fill="#000000">canSmoke: Boolean</text>
<polygon fill="none" stroke="#000000" points=".5,-607.903 .5,-627.903 121.5,-627.903 121.5,-607.903 .5,-607.903"/>
<text text-anchor="start" x="5.5" y="-614.803" font-family="Times,serif" font-size="9.00" fill="#000000">canPets: Boolean</text>
<polygon fill="none" stroke="#000000" points=".5,-587.903 .5,-607.903 121.5,-607.903 121.5,-587.903 .5,-587.903"/>
<text text-anchor="start" x="5.5" y="-594.803" font-family="Times,serif" font-size="9.00" fill="#000000">canInvite: Boolean</text>
<polygon fill="none" stroke="#000000" points=".5,-567.903 .5,-587.903 121.5,-587.903 121.5,-567.903 .5,-567.903"/>
<text text-anchor="start" x="5.5" y="-574.803" font-family="Times,serif" font-size="9.00" fill="#000000">hasWideCorridor: Boolean</text>
<polygon fill="none" stroke="#000000" points=".5,-547.903 .5,-567.903 121.5,-567.903 121.5,-547.903 .5,-547.903"/>
<text text-anchor="start" x="5.1375" y="-554.803" font-family="Times,serif" font-size="9.00" fill="#000000">hasDisabledAssistant: Boolean</text>
<polygon fill="none" stroke="#000000" points=".5,-527.903 .5,-547.903 121.5,-547.903 121.5,-527.903 .5,-527.903"/>
<text text-anchor="start" x="5.5" y="-534.803" font-family="Times,serif" font-size="9.00" fill="#000000">_id: ObjectID</text>
<polygon fill="none" stroke="#000000" points=".5,-507.903 .5,-527.903 121.5,-527.903 121.5,-507.903 .5,-507.903"/>
<text text-anchor="start" x="5.5" y="-514.803" font-family="Times,serif" font-size="9.00" fill="#000000">__v: Number</text>
</g>
<!-- rooms&#45;&gt;bookings -->
<g id="edge1" class="edge">
<title>rooms:16&#45;&gt;bookings:5</title>
<path fill="none" stroke="#000000" stroke-dasharray="5,2" d="M121,-537.903C156.1103,-537.903 224.2372,-469.7576 247.9916,-443.903 269.188,-420.8326 253.6622,-383.903 284.9916,-383.903"/>
<text text-anchor="middle" x="202.4958" y="-526.103" font-family="Times,serif" font-size="14.00" fill="#000000">rooms&#45;bookings</text>
<text text-anchor="middle" x="279.9383" y="-371.303" font-family="Times,serif" font-size="14.00" fill="#000000">N</text>
<text text-anchor="middle" x="124.5" y="-525.303" font-family="Times,serif" font-size="14.00" fill="#000000">1</text>
</g>
<!-- rooms&#45;&gt;reviews -->
<g id="edge5" class="edge">
<title>rooms:16&#45;&gt;reviews:2</title>
<path fill="none" stroke="#000000" stroke-dasharray="5,2" d="M121,-537.903C171.9452,-537.903 238.0464,-693.903 288.9916,-693.903"/>
<text text-anchor="middle" x="202.4958" y="-671.103" font-family="Times,serif" font-size="14.00" fill="#000000">rooms&#45;reviews</text>
<text text-anchor="middle" x="283.9383" y="-681.303" font-family="Times,serif" font-size="14.00" fill="#000000">N</text>
<text text-anchor="middle" x="124.5" y="-542.103" font-family="Times,serif" font-size="14.00" fill="#000000">1</text>
</g>
<!-- tokens -->
<g id="node5" class="node">
<title>tokens</title>
<polygon fill="#4477c9" stroke="transparent" points="283.9916,-63.903 283.9916,-201.903 367.9916,-201.903 367.9916,-63.903 283.9916,-63.903"/>
<polygon fill="#add8e6" stroke="transparent" points="283.9916,-183.903 283.9916,-201.903 367.9916,-201.903 367.9916,-183.903 283.9916,-183.903"/>
<polygon fill="none" stroke="#000000" points="283.9916,-183.903 283.9916,-201.903 367.9916,-201.903 367.9916,-183.903 283.9916,-183.903"/>
<text text-anchor="start" x="311.9934" y="-190.803" font-family="Times,serif" font-weight="bold" font-style="italic" font-size="9.00" fill="#000000"> tokens </text>
<polygon fill="none" stroke="#000000" points="283.9916,-163.903 283.9916,-183.903 367.9916,-183.903 367.9916,-163.903 283.9916,-163.903"/>
<text text-anchor="start" x="288.9916" y="-170.803" font-family="Times,serif" font-size="9.00" fill="#000000">user: ObjectID</text>
<polygon fill="none" stroke="#000000" points="283.9916,-143.903 283.9916,-163.903 367.9916,-163.903 367.9916,-143.903 283.9916,-143.903"/>
<text text-anchor="start" x="288.6294" y="-150.803" font-family="Times,serif" font-size="9.00" fill="#000000">refreshToken: String</text>
<polygon fill="none" stroke="#000000" points="283.9916,-123.903 283.9916,-143.903 367.9916,-143.903 367.9916,-123.903 283.9916,-123.903"/>
<text text-anchor="start" x="288.9916" y="-130.803" font-family="Times,serif" font-size="9.00" fill="#000000">_id: ObjectID</text>
<polygon fill="none" stroke="#000000" points="283.9916,-103.903 283.9916,-123.903 367.9916,-123.903 367.9916,-103.903 283.9916,-103.903"/>
<text text-anchor="start" x="288.9916" y="-110.803" font-family="Times,serif" font-size="9.00" fill="#000000">updatedAt: Date</text>
<polygon fill="none" stroke="#000000" points="283.9916,-83.903 283.9916,-103.903 367.9916,-103.903 367.9916,-83.903 283.9916,-83.903"/>
<text text-anchor="start" x="288.9916" y="-90.803" font-family="Times,serif" font-size="9.00" fill="#000000">createdAt: Date</text>
<polygon fill="none" stroke="#000000" points="283.9916,-63.903 283.9916,-83.903 367.9916,-83.903 367.9916,-63.903 283.9916,-63.903"/>
<text text-anchor="start" x="288.9916" y="-70.803" font-family="Times,serif" font-size="9.00" fill="#000000">__v: Number</text>
</g>
<!-- users -->
<g id="node6" class="node">
<title>users</title>
<polygon fill="#4477c9" stroke="transparent" points="19,-177.903 19,-415.903 102,-415.903 102,-177.903 19,-177.903"/>
<polygon fill="#add8e6" stroke="transparent" points="19.5,-397.903 19.5,-415.903 102.5,-415.903 102.5,-397.903 19.5,-397.903"/>
<polygon fill="none" stroke="#000000" points="19.5,-397.903 19.5,-415.903 102.5,-415.903 102.5,-397.903 19.5,-397.903"/>
<text text-anchor="start" x="49.5043" y="-404.803" font-family="Times,serif" font-weight="bold" font-style="italic" font-size="9.00" fill="#000000"> users </text>
<polygon fill="none" stroke="#000000" points="19.5,-377.903 19.5,-397.903 102.5,-397.903 102.5,-377.903 19.5,-377.903"/>
<text text-anchor="start" x="24.5" y="-384.803" font-family="Times,serif" font-size="9.00" fill="#000000">firstName: String</text>
<polygon fill="none" stroke="#000000" points="19.5,-357.903 19.5,-377.903 102.5,-377.903 102.5,-357.903 19.5,-357.903"/>
<text text-anchor="start" x="24.3844" y="-364.803" font-family="Times,serif" font-size="9.00" fill="#000000">secondName: String</text>
<polygon fill="none" stroke="#000000" points="19.5,-337.903 19.5,-357.903 102.5,-357.903 102.5,-337.903 19.5,-337.903"/>
<text text-anchor="start" x="24.5" y="-344.803" font-family="Times,serif" font-size="9.00" fill="#000000">subscribe: String</text>
<polygon fill="none" stroke="#000000" points="19.5,-317.903 19.5,-337.903 102.5,-337.903 102.5,-317.903 19.5,-317.903"/>
<text text-anchor="start" x="24.5" y="-324.803" font-family="Times,serif" font-size="9.00" fill="#000000">birthYear: Number</text>
<polygon fill="none" stroke="#000000" points="19.5,-297.903 19.5,-317.903 102.5,-317.903 102.5,-297.903 19.5,-297.903"/>
<text text-anchor="start" x="24.5" y="-304.803" font-family="Times,serif" font-size="9.00" fill="#000000">avatarPhoto: String</text>
<polygon fill="none" stroke="#000000" points="19.5,-277.903 19.5,-297.903 102.5,-297.903 102.5,-277.903 19.5,-277.903"/>
<text text-anchor="start" x="24.5" y="-284.803" font-family="Times,serif" font-size="9.00" fill="#000000">password: String</text>
<polygon fill="none" stroke="#000000" points="19.5,-257.903 19.5,-277.903 102.5,-277.903 102.5,-257.903 19.5,-257.903"/>
<text text-anchor="start" x="24.5" y="-264.803" font-family="Times,serif" font-size="9.00" fill="#000000">role: String</text>
<polygon fill="none" stroke="#000000" points="19.5,-237.903 19.5,-257.903 102.5,-257.903 102.5,-237.903 19.5,-237.903"/>
<text text-anchor="start" x="24.5" y="-244.803" font-family="Times,serif" font-size="9.00" fill="#000000">email: String</text>
<polygon fill="none" stroke="#000000" points="19.5,-217.903 19.5,-237.903 102.5,-237.903 102.5,-217.903 19.5,-217.903"/>
<text text-anchor="start" x="24.5" y="-224.803" font-family="Times,serif" font-size="9.00" fill="#000000">gender: String</text>
<polygon fill="none" stroke="#000000" points="19.5,-197.903 19.5,-217.903 102.5,-217.903 102.5,-197.903 19.5,-197.903"/>
<text text-anchor="start" x="24.5" y="-204.803" font-family="Times,serif" font-size="9.00" fill="#000000">_id: ObjectID</text>
<polygon fill="none" stroke="#000000" points="19.5,-177.903 19.5,-197.903 102.5,-197.903 102.5,-177.903 19.5,-177.903"/>
<text text-anchor="start" x="24.5" y="-184.803" font-family="Times,serif" font-size="9.00" fill="#000000">__v: Number</text>
</g>
<!-- users&#45;&gt;bookings -->
<g id="edge2" class="edge">
<title>users:9&#45;&gt;bookings:6</title>
<path fill="none" stroke="#000000" stroke-dasharray="5,2" d="M102.5,-207.903C180.0199,-207.903 194.0089,-248.4685 247.9916,-304.103 269.7559,-326.5332 253.7378,-363.903 284.9916,-363.903"/>
<text text-anchor="middle" x="202.4958" y="-309.103" font-family="Times,serif" font-size="14.00" fill="#000000">users&#45;bookings</text>
<text text-anchor="middle" x="279.9383" y="-351.303" font-family="Times,serif" font-size="14.00" fill="#000000">N</text>
<text text-anchor="middle" x="106" y="-195.303" font-family="Times,serif" font-size="14.00" fill="#000000">1</text>
</g>
<!-- users&#45;&gt;likes -->
<g id="edge4" class="edge">
<title>users:9&#45;&gt;likes:1</title>
<path fill="none" stroke="#000000" stroke-dasharray="5,2" d="M102.5,-207.903C117.3729,-207.903 270.3688,-17.0713 283.9916,-11.103 318.1872,3.8784 333.6127,3.4527 367.9916,-11.103 454.5131,-47.7353 421.1673,-162.903 515.1242,-162.903"/>
<text text-anchor="middle" x="325.9916" y="-16.103" font-family="Times,serif" font-size="14.00" fill="#000000">users&#45;likes</text>
<text text-anchor="middle" x="510.0709" y="-150.303" font-family="Times,serif" font-size="14.00" fill="#000000">N</text>
<text text-anchor="middle" x="106" y="-212.103" font-family="Times,serif" font-size="14.00" fill="#000000">1</text>
</g>
<!-- users&#45;&gt;reviews -->
<g id="edge6" class="edge">
<title>users:9&#45;&gt;reviews:3</title>
<path fill="none" stroke="#000000" stroke-dasharray="5,2" d="M102.5,-207.903C163.9222,-207.903 120.0224,-285.8587 157,-334.903 188.4149,-376.5694 222.0562,-363.8223 247.9916,-409.103 277.5867,-460.7732 229.446,-673.903 288.9916,-673.903"/>
<text text-anchor="middle" x="202.4958" y="-413.103" font-family="Times,serif" font-size="14.00" fill="#000000">users&#45;reviews</text>
<text text-anchor="middle" x="283.9383" y="-661.303" font-family="Times,serif" font-size="14.00" fill="#000000">N</text>
<text text-anchor="middle" x="99" y="-195.303" font-family="Times,serif" font-size="14.00" fill="#000000">1</text>
</g>
<!-- users&#45;&gt;tokens -->
<g id="edge7" class="edge">
<title>users:9&#45;&gt;tokens:0</title>
<path fill="none" stroke="#000000" stroke-dasharray="5,2" d="M102.5,-207.903C128.9311,-207.903 131.3642,-190.5382 157,-184.103 211.9186,-170.3171 227.3691,-173.903 283.9916,-173.903"/>
<text text-anchor="middle" x="202.4958" y="-189.103" font-family="Times,serif" font-size="14.00" fill="#000000">users&#45;tokens</text>
<text text-anchor="middle" x="278.9383" y="-161.303" font-family="Times,serif" font-size="14.00" fill="#000000">N</text>
<text text-anchor="middle" x="106" y="-195.303" font-family="Times,serif" font-size="14.00" fill="#000000">1</text>
</g>
</g>
</svg>
